<?xml version="1.0" encoding="UTF-8" standalone="no"?>
<!-- Created with Inkscape (http://www.inkscape.org/) -->

<svg
   xmlns:dc="http://purl.org/dc/elements/1.1/"
   xmlns:cc="http://creativecommons.org/ns#"
   xmlns:rdf="http://www.w3.org/1999/02/22-rdf-syntax-ns#"
   xmlns:svg="http://www.w3.org/2000/svg"
   xmlns="http://www.w3.org/2000/svg"
   version="1.1"
   width="31.991339"
   height="33.053719"
   id="svg2">
  <defs
     id="defs4" />
  <metadata
     id="metadata7">
    <rdf:RDF>
      <cc:Work
         rdf:about="">
        <dc:format>image/svg+xml</dc:format>
        <dc:type
           rdf:resource="http://purl.org/dc/dcmitype/StillImage" />
        <dc:title></dc:title>
      </cc:Work>
    </rdf:RDF>
  </metadata>
  <g
     transform="translate(-140.91943,-120.76418)"
     id="layer1">
    <g
       transform="matrix(0.99674291,-0.08064471,0.08064471,0.99674291,0,0)"
       id="text5893"
       style="font-size:40px;font-style:normal;font-weight:normal;line-height:125%;letter-spacing:0px;word-spacing:0px;fill:#0059ff;fill-opacity:1;stroke:none;font-family:Sans">
      <path
         d="m 148.10526,166.22723 c -3.28126,0 -5.94532,-1.15625 -7.99219,-3.46875 -2.04688,-2.32812 -3.07032,-5.31249 -3.07031,-8.95312 l 0,-1.28906 c -10e-6,-3.65624 1.03124,-6.67186 3.09375,-9.04688 2.07811,-2.37497 4.64842,-3.56247 7.71093,-3.5625 3.07811,3e-5 5.45311,0.99221 7.125,2.97656 1.68748,1.96877 2.53123,4.62502 2.53125,7.96875 l 0,2.17969 -17.64843,0 0,0.77344 c -10e-6,2.89063 0.72655,5.28907 2.17968,7.19531 1.46874,1.90625 3.49218,2.85938 6.07032,2.85938 1.54686,0 2.96873,-0.25 4.26562,-0.75 1.29686,-0.51563 2.37498,-1.20312 3.23438,-2.0625 l 1.19531,1.92187 c -0.89065,0.9375 -2.06252,1.71875 -3.51563,2.34375 -1.43751,0.60938 -3.16408,0.91406 -5.17968,0.91406 m -0.25782,-23.92968 c -2.15626,2e-5 -3.92969,0.77346 -5.32031,2.32031 -1.39063,1.54689 -2.20313,3.50783 -2.4375,5.88281 l 0.0703,0.14063 14.53125,0 0,-0.58594 c -2e-5,-2.24998 -0.59377,-4.10154 -1.78125,-5.55469 -1.17189,-1.46873 -2.85939,-2.2031 -5.0625,-2.20312"
         id="path5922"
         style="font-size:48px;fill:#0059ff;font-family:Roboto Th;-inkscape-font-specification:Roboto Th" />
    </g>
    <g
       transform="translate(-4,0)"
       id="text2985"
       style="font-size:36px;font-style:normal;font-weight:bold;line-height:125%;letter-spacing:0px;word-spacing:0px;fill:#000000;fill-opacity:1;stroke:none;font-family:Sans;-inkscape-font-specification:Sans Bold">
      <path
         d="m 193.79372,148.21738 c -2e-5,-0.98958 -0.41018,-1.84895 -1.23047,-2.57813 -0.80731,-0.74218 -2.27215,-1.34765 -4.39453,-1.8164 -2.50001,-0.52083 -4.36199,-1.23046 -5.58594,-2.12891 -1.21094,-0.91145 -1.81641,-2.18098 -1.81641,-3.80859 0,-1.61457 0.67708,-2.98176 2.03125,-4.10157 1.36718,-1.11977 3.17057,-1.67966 5.41016,-1.67968 2.35676,2e-5 4.23827,0.59897 5.64453,1.79687 1.40623,1.18491 2.07681,2.64976 2.01172,4.39453 l -0.0391,0.11719 -2.16797,0 c -2e-5,-1.15884 -0.50132,-2.16795 -1.50391,-3.02734 -0.9896,-0.85936 -2.3047,-1.28905 -3.94531,-1.28907 -1.69272,2e-5 -2.96876,0.37112 -3.82813,1.11328 -0.85938,0.74221 -1.28906,1.60809 -1.28906,2.59766 0,0.96356 0.36458,1.76434 1.09375,2.40234 0.74218,0.62502 2.21353,1.1784 4.41406,1.66016 2.47395,0.54689 4.34244,1.3086 5.60547,2.28516 1.27603,0.97657 1.91405,2.29167 1.91407,3.94531 -2e-5,1.75782 -0.71617,3.19011 -2.14844,4.29687 -1.41929,1.09375 -3.3008,1.64063 -5.64453,1.64063 -2.56512,0 -4.58334,-0.61198 -6.05469,-1.83594 -1.45834,-1.22395 -2.14844,-2.68229 -2.07031,-4.375 l 0.0391,-0.11719 2.14844,0 c 0.0911,1.52345 0.70963,2.63022 1.85547,3.32032 1.15884,0.6901 2.51952,1.03515 4.08203,1.03515 1.69269,0 3.02733,-0.3776 4.0039,-1.13281 0.97655,-0.7552 1.46483,-1.66015 1.46485,-2.71484"
         id="path5901"
         style="fill:#0059ff;fill-opacity:1;font-family:Roboto Th;-inkscape-font-specification:Roboto Th" />
      <path
         d="m 205.88356,143.33456 -2.46094,0 0,10.29297 -2.34375,0 0,-30.46875 2.34375,0 0,18.16407 2.22657,0 8.10546,-8.82813 2.73438,0 0.0391,0.0977 -8.67187,9.58984 9.375,11.34766 -0.0586,0.0977 -2.67578,0 -8.61328,-10.29297"
         id="path5903"
         style="fill:#0059ff;fill-opacity:1;font-family:Roboto Th;-inkscape-font-specification:Roboto Th" />
      <path
         d="m 218.657,142.74863 c 0,-3.11197 0.85286,-5.66405 2.55859,-7.65625 1.70572,-1.99217 3.96484,-2.98826 6.77735,-2.98828 2.8255,2e-5 5.09112,0.99611 6.79687,2.98828 1.70571,1.9922 2.55857,4.54428 2.55859,7.65625 l 0,0.64453 c -2e-5,3.12501 -0.85288,5.6836 -2.55859,7.67578 -1.69272,1.97917 -3.94533,2.96875 -6.75781,2.96875 -2.83855,0 -5.11069,-0.98958 -6.81641,-2.96875 -1.70573,-1.99218 -2.55859,-4.55077 -2.55859,-7.67578 l 0,-0.64453 m 2.34375,0.64453 c -1e-5,2.44792 0.61848,4.50521 1.85547,6.17187 1.23697,1.66667 2.96223,2.5 5.17578,2.5 2.17446,0 3.88019,-0.83333 5.11719,-2.5 1.24998,-1.66666 1.87498,-3.72395 1.875,-6.17187 l 0,-0.64453 c -2e-5,-2.40884 -0.62502,-4.45311 -1.875,-6.13282 -1.25002,-1.67966 -2.96877,-2.51951 -5.15625,-2.51953 -2.18751,2e-5 -3.89975,0.83987 -5.13672,2.51953 -1.23699,1.67971 -1.85548,3.72398 -1.85547,6.13282 l 0,0.64453"
         id="path5905"
         style="fill:#0059ff;fill-opacity:1;font-family:Roboto Th;-inkscape-font-specification:Roboto Th" />
      <path
         d="m 244.45778,153.62753 -2.32422,0 0,-30.46875 2.32422,0 0,30.46875"
         id="path5907"
         style="fill:#e6e6e6;font-family:Roboto Th;-inkscape-font-specification:Roboto Th" />
      <path
         d="m 263.50075,153.62753 c -0.14325,-0.74218 -0.25392,-1.3802 -0.33203,-1.91406 -0.0651,-0.53385 -0.0977,-1.08073 -0.0977,-1.64062 -0.72918,1.14583 -1.75132,2.09635 -3.06641,2.85156 -1.31511,0.74219 -2.82553,1.11328 -4.53125,1.11328 -2.07031,0 -3.67839,-0.54688 -4.82421,-1.64063 -1.13282,-1.10676 -1.69923,-2.60416 -1.69922,-4.49218 -1e-5,-1.88802 0.82682,-3.41796 2.48047,-4.58985 1.65363,-1.17186 3.80207,-1.7578 6.44531,-1.75781 l 5.19531,0 0,-2.61719 c -2e-5,-1.5104 -0.48179,-2.69529 -1.44531,-3.55468 -0.95054,-0.85936 -2.29819,-1.28905 -4.04297,-1.28907 -1.60157,2e-5 -2.89714,0.39065 -3.88672,1.17188 -0.97657,0.78127 -1.46485,1.76434 -1.46484,2.94922 l -2.16797,0 -0.0391,-0.11719 c -0.0781,-1.58853 0.59895,-2.98175 2.03125,-4.17969 1.4453,-1.21091 3.32681,-1.81638 5.64453,-1.8164 2.31769,2e-5 4.17967,0.59246 5.58593,1.77734 1.40624,1.18491 2.10936,2.88413 2.10938,5.09766 l 0,10.39062 c -2e-5,0.74219 0.039,1.46485 0.11719,2.16797 0.0911,0.70313 0.23435,1.39974 0.42968,2.08984 l -2.4414,0 m -7.77344,-1.66015 c 1.79686,0 3.35285,-0.42318 4.66797,-1.26953 1.31509,-0.85938 2.20701,-1.95964 2.67578,-3.30079 l 0,-4.04296 -5.21484,0 c -1.90105,1e-5 -3.47006,0.45573 -4.70703,1.36718 -1.23699,0.89845 -1.85548,1.98569 -1.85547,3.26172 -1e-5,1.19792 0.39062,2.16146 1.17187,2.89063 0.79427,0.72917 1.8815,1.09375 3.26172,1.09375"
         id="path5909"
         style="fill:#e6e6e6;font-family:Roboto Th;-inkscape-font-specification:Roboto Th" />
      <path
         d="m 280.86403,134.50644 -1.66016,-0.11719 c -1.47136,2e-5 -2.6823,0.41669 -3.63281,1.25 -0.93751,0.82033 -1.60808,1.95314 -2.01172,3.39844 l 0,14.58984 -2.34375,0 0,-21.13281 2.05078,0 0.29297,3.51563 0,0.23437 c 0.61197,-1.30206 1.43229,-2.31769 2.46094,-3.04687 1.02864,-0.72915 2.25259,-1.09373 3.67187,-1.09375 0.28645,2e-5 0.55989,0.0261 0.82032,0.0781 0.2604,0.0391 0.47524,0.0847 0.64453,0.13672 l -0.29297,2.1875"
         id="path5911"
         style="fill:#e6e6e6;font-family:Roboto Th;-inkscape-font-specification:Roboto Th" />
      <path
         d="m 297.23122,148.21738 c -2e-5,-0.98958 -0.41018,-1.84895 -1.23047,-2.57813 -0.80731,-0.74218 -2.27215,-1.34765 -4.39453,-1.8164 -2.50001,-0.52083 -4.36199,-1.23046 -5.58594,-2.12891 -1.21094,-0.91145 -1.81641,-2.18098 -1.81641,-3.80859 0,-1.61457 0.67708,-2.98176 2.03125,-4.10157 1.36718,-1.11977 3.17057,-1.67966 5.41016,-1.67968 2.35676,2e-5 4.23827,0.59897 5.64453,1.79687 1.40623,1.18491 2.07681,2.64976 2.01172,4.39453 l -0.0391,0.11719 -2.16797,0 c -2e-5,-1.15884 -0.50132,-2.16795 -1.50391,-3.02734 -0.9896,-0.85936 -2.3047,-1.28905 -3.94531,-1.28907 -1.69272,2e-5 -2.96876,0.37112 -3.82813,1.11328 -0.85938,0.74221 -1.28906,1.60809 -1.28906,2.59766 0,0.96356 0.36458,1.76434 1.09375,2.40234 0.74218,0.62502 2.21353,1.1784 4.41406,1.66016 2.47395,0.54689 4.34244,1.3086 5.60547,2.28516 1.27603,0.97657 1.91405,2.29167 1.91407,3.94531 -2e-5,1.75782 -0.71617,3.19011 -2.14844,4.29687 -1.41929,1.09375 -3.3008,1.64063 -5.64453,1.64063 -2.56512,0 -4.58334,-0.61198 -6.05469,-1.83594 -1.45834,-1.22395 -2.14844,-2.68229 -2.07031,-4.375 l 0.0391,-0.11719 2.14844,0 c 0.0911,1.52345 0.70963,2.63022 1.85547,3.32032 1.15884,0.6901 2.51952,1.03515 4.08203,1.03515 1.69269,0 3.02733,-0.3776 4.0039,-1.13281 0.97655,-0.7552 1.46483,-1.66015 1.46485,-2.71484"
         id="path5913"
         style="fill:#e6e6e6;font-family:Roboto Th;-inkscape-font-specification:Roboto Th" />
      <path
         d="m 306.84059,136.08847 c 0.71614,-1.263 1.65364,-2.23956 2.8125,-2.92969 1.17187,-0.7031 2.53905,-1.05466 4.10156,-1.05468 2.22655,2e-5 3.93228,0.69012 5.11719,2.07031 1.1979,1.38022 1.79686,3.52215 1.79688,6.42578 l 0,13.02734 -2.34375,0 0,-13.0664 c -2e-5,-2.29165 -0.45575,-3.93228 -1.36719,-4.92188 -0.89845,-1.00258 -2.14194,-1.50389 -3.73047,-1.5039 -1.64063,1e-5 -2.9948,0.40366 -4.0625,1.21093 -1.05469,0.79429 -1.82943,1.862 -2.32422,3.20313 l 0,15.07812 -2.34375,0 0,-30.46875 2.34375,0 0,12.92969"
         id="path5915"
         style="fill:#e6e6e6;font-family:Roboto Th;-inkscape-font-specification:Roboto Th" />
      <path
         d="m 328.98903,153.62753 -2.32422,0 0,-21.13281 2.32422,0 0,21.13281 m 0,-27.1875 -2.32422,0 0,-3.28125 2.32422,0 0,3.28125"
         id="path5917"
         style="fill:#e6e6e6;font-family:Roboto Th;-inkscape-font-specification:Roboto Th" />
      <path
         d="m 351.66481,143.64706 c -2e-5,3.16407 -0.71617,5.69011 -2.14844,7.57813 -1.43231,1.875 -3.40496,2.8125 -5.91797,2.8125 -1.47136,0 -2.76693,-0.27995 -3.88671,-0.83984 -1.10678,-0.5599 -2.01173,-1.35417 -2.71485,-2.38282 l 0,10.9375 -2.34375,0 0,-29.25781 1.79688,0 0.42968,3.30078 c 0.70312,-1.17185 1.61458,-2.0768 2.73438,-2.71484 1.11978,-0.65102 2.43488,-0.97654 3.94531,-0.97656 2.53905,2e-5 4.52472,1.01564 5.95703,3.04687 1.43227,2.01825 2.14842,4.71356 2.14844,8.08594 l 0,0.41015 m -2.34375,-0.41015 c -2e-5,-2.68228 -0.53387,-4.86978 -1.60156,-6.5625 -1.06773,-1.69269 -2.63022,-2.53905 -4.6875,-2.53906 -1.54949,1e-5 -2.81902,0.37111 -3.8086,1.11328 -0.97657,0.7422 -1.71875,1.70574 -2.22656,2.89062 l 0,10.23438 c 0.54687,1.14583 1.32161,2.05078 2.32422,2.71484 1.0026,0.65104 2.25259,0.97656 3.75,0.97656 2.04426,0 3.59374,-0.76822 4.64844,-2.30468 1.06769,-1.53646 1.60154,-3.57422 1.60156,-6.11329 l 0,-0.41015"
         id="path5919"
         style="fill:#e6e6e6;font-family:Roboto Th;-inkscape-font-specification:Roboto Th" />
    </g>
    <path
       d="m 151.45267,148.80437 c 0,0 -11.56129,8.88403 -9.96773,1.91628 1.59357,-6.96776 9.11851,-17.47573 17.70802,-24.37731 8.61064,-6.91858 14.86518,-6.13948 12.97519,-2.11634 -1.89,4.02316 -4.57942,6.20196 -4.57942,6.20196 0,0 4.01999,-5.14364 0.90576,-5.24338 -3.55088,-0.11369 -7.44129,1.6835 -14.77198,9.18406 -7.29199,7.46091 -8.45168,13.24463 -8.3252,15.38104 0.10748,1.81649 3.04044,1.22837 6.05536,-0.94631 z"
       id="path3817"
       style="fill:#ffc800;fill-opacity:1;stroke:#000000;stroke-width:0.82949716px;stroke-linecap:butt;stroke-linejoin:miter;stroke-opacity:0" />
  </g>
</svg>
